<?xml version="1.0" encoding="utf-8"?>
<!-- Generator: Adobe Illustrator 23.0.1, SVG Export Plug-In . SVG Version: 6.00 Build 0)  -->
<svg version="1.1" id="Layer_1" xmlns="http://www.w3.org/2000/svg" xmlns:xlink="http://www.w3.org/1999/xlink" x="0px" y="0px"
	 viewBox="0 0 200 100" style="enable-background:new 0 0 200 100;" xml:space="preserve">
<style type="text/css">
	.st0{fill:#939598;}
	.st1{fill:#2BACE2;}
	.st2{fill:#FFFFFF;}
	.st3{font-family:'VarelaRound-Regular';}
	.st4{font-size:25px;}
</style>
<path class="st0" d="M168.4,24.9H26.2C12.5,24.9,1.4,36,1.4,49.7l0,0c0,5.7,1.9,11,5.2,15.2c0.9,7.2-0.3,13-3.2,17.8
	C9.3,77.9,15.1,75,21,74c1.7,0.4,3.4,0.5,5.2,0.5h142.2c13.7,0,24.8-11.1,24.8-24.8l0,0C193.2,36,182.1,24.9,168.4,24.9z"/>
<path class="st1" d="M196.7,75.5c-1.8-1.3-4.8-9-4.4-17.7c2.7-4,4.3-8.8,4.3-14l0,0c0-13.8-11.2-25-25-25H33.1
	c-13.8,0-25,11.2-25,25l0,0c0,13.8,11.2,25,25,25h138.5c1.8,0,3.5-0.2,5.2-0.5C185.8,69.7,198.6,76.9,196.7,75.5z"/>
<text transform="matrix(0.9918 0 0 1 43.5508 55.7718)" class="st2 st3 st4">GO-Plaint</text>
</svg>
